<?xml version="1.0" encoding="UTF-8"?>
<!DOCTYPE svg PUBLIC "-//W3C//DTD SVG 1.1//EN" "http://www.w3.org/Graphics/SVG/1.1/DTD/svg11.dtd">
<svg xmlns="http://www.w3.org/2000/svg" version="1.1" width="476px" height="524px" style="shape-rendering:geometricPrecision; text-rendering:geometricPrecision; image-rendering:optimizeQuality; fill-rule:evenodd; clip-rule:evenodd" xmlns:xlink="http://www.w3.org/1999/xlink">
<g><path style="opacity:0.004" fill="#fefffe" d="M 399.5,6.5 C 400.833,7.16667 400.833,7.16667 399.5,6.5 Z"/></g>
<g><path style="opacity:0.004" fill="#fefffe" d="M 179.5,7.5 C 180.833,8.16667 180.833,8.16667 179.5,7.5 Z"/></g>
<g><path style="opacity:0.004" fill="#fefffe" d="M 388.5,8.5 C 389.833,9.16667 389.833,9.16667 388.5,8.5 Z"/></g>
<g><path style="opacity:0.004" fill="#fefffe" d="M 155.5,12.5 C 156.833,13.1667 156.833,13.1667 155.5,12.5 Z"/></g>
<g><path style="opacity:0.004" fill="#fefffe" d="M 323.5,14.5 C 324.833,15.1667 324.833,15.1667 323.5,14.5 Z"/></g>
<g><path style="opacity:0.004" fill="#fefffe" d="M 359.5,15.5 C 360.833,16.1667 360.833,16.1667 359.5,15.5 Z"/></g>
<g><path style="opacity:0.004" fill="#fefffe" d="M 311.5,25.5 C 312.833,26.1667 312.833,26.1667 311.5,25.5 Z"/></g>
<g><path style="opacity:0.004" fill="#fefffe" d="M 243.5,32.5 C 244.833,33.1667 244.833,33.1667 243.5,32.5 Z"/></g>
<g><path style="opacity:0.004" fill="#fefffe" d="M 430.5,41.5 C 431.833,42.1667 431.833,42.1667 430.5,41.5 Z"/></g>
<g><path style="opacity:1" fill="#87dc48" d="M 388.5,58.5 C 386.522,61.6723 384.689,65.0057 383,68.5C 379.697,71.1284 376.364,73.7951 373,76.5C 370.156,78.8523 368.322,81.8523 367.5,85.5C 366.022,85.238 364.689,85.5713 363.5,86.5C 359.194,90.1396 355.194,94.1396 351.5,98.5C 350.353,100.765 350.186,103.098 351,105.5C 355.635,111.967 360.802,117.967 366.5,123.5C 371.581,131.325 376.415,139.325 381,147.5C 381.671,148.252 382.504,148.586 383.5,148.5C 385.747,156.337 388.58,164.004 392,171.5C 392.21,178.754 394.377,185.088 398.5,190.5C 399.434,191.568 399.768,192.901 399.5,194.5C 400.962,214.848 400.796,235.182 399,255.5C 396.664,267.994 393.831,280.327 390.5,292.5C 386.426,297.41 382.926,302.743 380,308.5C 377.505,317.152 373.172,324.818 367,331.5C 366.51,332.793 366.343,334.127 366.5,335.5C 365.5,335.5 364.5,335.5 363.5,335.5C 363.777,332.11 364.777,328.943 366.5,326C 365.833,325.667 365.167,325.333 364.5,325C 365.726,319.542 366.559,314.042 367,308.5C 366.259,307.359 365.425,307.359 364.5,308.5C 362.153,311.843 359.487,314.843 356.5,317.5C 357.913,314.339 359.58,311.339 361.5,308.5C 361.343,307.127 361.51,305.793 362,304.5C 365.497,300.847 367.33,296.514 367.5,291.5C 370.231,289.929 372.065,287.595 373,284.5C 381.814,260.984 384.814,236.651 382,211.5C 381.667,207.167 381.333,202.833 381,198.5C 377.512,188.706 374.846,178.706 373,168.5C 369.889,164.613 367.556,160.28 366,155.5C 364.693,153.808 363.193,152.475 361.5,151.5C 361.657,150.127 361.49,148.793 361,147.5C 358.43,142.258 355.43,137.258 352,132.5C 346.579,128.412 341.746,123.579 337.5,118C 335.744,117.86 334.078,118.36 332.5,119.5C 331.472,121.361 329.972,122.695 328,123.5C 327.517,124.448 327.351,125.448 327.5,126.5C 319.89,130.259 313.557,135.759 308.5,143C 297.573,148.445 289.739,145.612 285,134.5C 280.865,131.492 277.699,127.826 275.5,123.5C 274.5,123.5 273.5,123.5 272.5,123.5C 271.603,118.86 271.436,114.194 272,109.5C 274.705,106.964 277.205,104.297 279.5,101.5C 279.5,100.833 279.833,100.5 280.5,100.5C 282.279,102.344 284.612,103.01 287.5,102.5C 287.5,103.5 287.5,104.5 287.5,105.5C 290.799,106.376 294.132,106.543 297.5,106C 299.298,103.528 301.632,101.861 304.5,101C 307.794,97.173 308.127,93.3397 305.5,89.5C 303.27,88.0387 300.937,86.5387 298.5,85C 300.119,83.0768 301.952,82.5768 304,83.5C 305.788,81.9956 306.288,80.3289 305.5,78.5C 307.421,77.359 309.421,77.1923 311.5,78C 314.78,80.8615 318.28,83.3615 322,85.5C 323.791,84.0881 324.958,82.2548 325.5,80C 329.606,78.467 332.606,75.8003 334.5,72C 336.436,71.187 338.436,70.687 340.5,70.5C 341.045,66.5291 342.379,62.8624 344.5,59.5C 351.498,53.3354 358.165,46.8354 364.5,40C 372.457,35.6924 379.457,36.8591 385.5,43.5C 386.246,44.7362 386.579,46.0695 386.5,47.5C 385.5,47.5 384.5,47.5 383.5,47.5C 383.187,50.2469 383.52,52.9135 384.5,55.5C 385.684,53.9539 386.684,52.2873 387.5,50.5C 388.48,53.0865 388.813,55.7531 388.5,58.5 Z"/></g>
<g><path style="opacity:0.004" fill="#fefffe" d="M 177.5,45.5 C 178.833,46.1667 178.833,46.1667 177.5,45.5 Z"/></g>
<g><path style="opacity:0.906" fill="#acd284" d="M 367.5,85.5 C 368.322,81.8523 370.156,78.8523 373,76.5C 376.364,73.7951 379.697,71.1284 383,68.5C 384.689,65.0057 386.522,61.6723 388.5,58.5C 389.117,58.3893 389.617,58.056 390,57.5C 390.667,53.5 390.667,49.5 390,45.5C 384.29,36.5307 376.123,33.364 365.5,36C 355.486,47.8544 344.486,58.3544 332.5,67.5C 332.369,66.7611 332.536,66.0944 333,65.5C 343.833,55 354.667,44.5 365.5,34C 377.727,30.1063 386.56,33.9396 392,45.5C 394.402,51.8824 393.735,57.8824 390,63.5C 382.756,71.1841 375.256,78.5174 367.5,85.5 Z"/></g>
<g><path style="opacity:1" fill="#88db49" d="M 388.5,58.5 C 388.813,55.7531 388.48,53.0865 387.5,50.5C 386.684,52.2873 385.684,53.9539 384.5,55.5C 383.52,52.9135 383.187,50.2469 383.5,47.5C 384.5,47.5 385.5,47.5 386.5,47.5C 386.579,46.0695 386.246,44.7362 385.5,43.5C 379.457,36.8591 372.457,35.6924 364.5,40C 358.165,46.8354 351.498,53.3354 344.5,59.5C 342.379,62.8624 341.045,66.5291 340.5,70.5C 338.436,70.687 336.436,71.187 334.5,72C 332.606,75.8003 329.606,78.467 325.5,80C 324.958,82.2548 323.791,84.0881 322,85.5C 318.28,83.3615 314.78,80.8615 311.5,78C 309.421,77.1923 307.421,77.359 305.5,78.5C 306.288,80.3289 305.788,81.9956 304,83.5C 301.952,82.5768 300.119,83.0768 298.5,85C 300.937,86.5387 303.27,88.0387 305.5,89.5C 303.801,89.6602 302.134,89.4935 300.5,89C 290.284,84.687 279.95,80.687 269.5,77C 242.507,72.3837 215.507,72.3837 188.5,77C 182.467,79.011 176.467,81.011 170.5,83C 167.833,84.3333 165.167,85.6667 162.5,87C 160.937,87.7589 159.937,88.9256 159.5,90.5C 154.917,90.895 150.584,92.0616 146.5,94C 139.845,100.269 132.845,106.102 125.5,111.5C 124.295,112.577 123.628,113.91 123.5,115.5C 120.715,115.933 118.381,117.266 116.5,119.5C 112.825,125.512 108.658,131.179 104,136.5C 102.622,138.213 100.955,139.547 99,140.5C 93.4179,152.493 87.5846,164.16 81.5,175.5C 81.3379,173.473 81.5045,171.473 82,169.5C 83.8594,168.355 84.6927,166.688 84.5,164.5C 84.2995,161.39 83.2995,159.39 81.5,158.5C 84.3495,156.473 84.0161,154.973 80.5,154C 81.1079,153.13 81.9412,152.63 83,152.5C 88.9827,154.294 91.9827,151.961 92,145.5C 95.4378,144.026 97.2711,141.359 97.5,137.5C 96.6182,134.209 95.9516,130.876 95.5,127.5C 89.0333,127.097 88.0333,129.097 92.5,133.5C 93.1556,135.453 93.4889,137.453 93.5,139.5C 92.1779,139.67 91.0113,139.337 90,138.5C 89.7674,136.22 88.934,134.22 87.5,132.5C 83.8643,135.21 83.531,138.376 86.5,142C 84.5155,144.966 82.5155,144.799 80.5,141.5C 77.6103,145.321 75.777,149.654 75,154.5C 74,155.5 73,156.5 72,157.5C 70.9786,163.125 69.4786,168.625 67.5,174C 66.488,176.243 65.1546,178.076 63.5,179.5C 63.5,178.5 63.5,177.5 63.5,176.5C 64.7758,170.624 66.6091,164.958 69,159.5C 74.5175,150.35 79.5175,141.016 84,131.5C 87.3333,126.833 90.6667,122.167 94,117.5C 103.883,108.614 113.383,99.4478 122.5,90C 125.345,89.4618 128.012,88.4618 130.5,87C 138.289,80.5462 146.622,74.8795 155.5,70C 174.218,65.2055 192.884,60.2055 211.5,55C 222.833,54.3333 234.167,54.3333 245.5,55C 250.992,56.851 256.658,57.851 262.5,58C 272.845,60.0757 282.511,62.9091 291.5,66.5C 295.128,67.7103 298.794,68.7103 302.5,69.5C 303.167,69.5 303.5,69.8333 303.5,70.5C 307.913,73.0551 312.246,75.8884 316.5,79C 324.397,78.9613 329.73,75.128 332.5,67.5C 344.486,58.3544 355.486,47.8544 365.5,36C 376.123,33.364 384.29,36.5307 390,45.5C 390.667,49.5 390.667,53.5 390,57.5C 389.617,58.056 389.117,58.3893 388.5,58.5 Z"/></g>
<g><path style="opacity:0.071" fill="#aad380" d="M 302.5,69.5 C 298.794,68.7103 295.128,67.7103 291.5,66.5C 282.511,62.9091 272.845,60.0757 262.5,58C 256.658,57.851 250.992,56.851 245.5,55C 234.167,54.3333 222.833,54.3333 211.5,55C 192.884,60.2055 174.218,65.2055 155.5,70C 146.622,74.8795 138.289,80.5462 130.5,87C 128.012,88.4618 125.345,89.4618 122.5,90C 113.383,99.4478 103.883,108.614 94,117.5C 90.6667,122.167 87.3333,126.833 84,131.5C 79.5175,141.016 74.5175,150.35 69,159.5C 66.6091,164.958 64.7758,170.624 63.5,176.5C 61.7099,180.277 60.2099,184.277 59,188.5C 58.4413,196.627 57.1079,204.627 55,212.5C 54.1577,227.889 54.6577,243.223 56.5,258.5C 46.8878,189.254 68.8878,132.421 122.5,88C 171.28,52.8479 224.613,43.8479 282.5,61C 289.554,63.1762 296.22,66.0096 302.5,69.5 Z"/></g>
<g><path style="opacity:0.004" fill="#fefffe" d="M 28.5,64.5 C 29.8333,65.1667 29.8333,65.1667 28.5,64.5 Z"/></g>
<g><path style="opacity:0.871" fill="#b3d788" d="M 332.5,67.5 C 329.73,75.128 324.397,78.9613 316.5,79C 312.246,75.8884 307.913,73.0551 303.5,70.5C 309.441,72.2205 314.941,74.8872 320,78.5C 323.754,74.2756 327.921,70.609 332.5,67.5 Z"/></g>
<g><path style="opacity:0.004" fill="#fefffe" d="M 468.5,74.5 C 469.833,75.1667 469.833,75.1667 468.5,74.5 Z"/></g>
<g><path style="opacity:0.004" fill="#fefffe" d="M 452.5,79.5 C 453.833,80.1667 453.833,80.1667 452.5,79.5 Z"/></g>
<g><path style="opacity:0.573" fill="#9bcb6d" d="M 305.5,89.5 C 308.127,93.3397 307.794,97.173 304.5,101C 301.632,101.861 299.298,103.528 297.5,106C 294.132,106.543 290.799,106.376 287.5,105.5C 287.5,104.5 287.5,103.5 287.5,102.5C 284.612,103.01 282.279,102.344 280.5,100.5C 285.608,100.451 290.275,101.785 294.5,104.5C 298.021,101.813 301.021,98.6465 303.5,95C 302.5,94 301.5,93 300.5,92C 253.76,69.2433 206.76,68.7433 159.5,90.5C 159.937,88.9256 160.937,87.7589 162.5,87C 165.167,85.6667 167.833,84.3333 170.5,83C 176.467,81.011 182.467,79.011 188.5,77C 215.507,72.3837 242.507,72.3837 269.5,77C 279.95,80.687 290.284,84.687 300.5,89C 302.134,89.4935 303.801,89.6602 305.5,89.5 Z"/></g>
<g><path style="opacity:0.004" fill="#fefffe" d="M 393.5,84.5 C 394.833,85.1667 394.833,85.1667 393.5,84.5 Z"/></g>
<g><path style="opacity:0.004" fill="#fefffe" d="M 3.5,95.5 C 4.83333,96.1667 4.83333,96.1667 3.5,95.5 Z"/></g>
<g><path style="opacity:0.404" fill="#9acb67" d="M 159.5,90.5 C 153.23,94.3076 146.897,98.141 140.5,102C 134.803,106.508 129.136,111.008 123.5,115.5C 123.628,113.91 124.295,112.577 125.5,111.5C 132.845,106.102 139.845,100.269 146.5,94C 150.584,92.0616 154.917,90.895 159.5,90.5 Z"/></g>
<g><path style="opacity:0.004" fill="#fefffe" d="M 422.5,106.5 C 423.833,107.167 423.833,107.167 422.5,106.5 Z"/></g>
<g><path style="opacity:0.812" fill="#98c968" d="M 242.5,121.5 C 226.107,117.14 210.774,119.306 196.5,128C 186.072,139.397 181.905,152.897 184,168.5C 186.178,172.852 187.511,177.519 188,182.5C 189.74,183.716 190.74,185.382 191,187.5C 195.881,189.755 200.048,192.922 203.5,197C 211.672,201.223 220.339,202.557 229.5,201C 234.343,199.955 239.177,198.788 244,197.5C 248.44,193.248 253.273,189.581 258.5,186.5C 254.895,192.93 249.561,197.43 242.5,200C 220.779,207.975 202.612,203.141 188,185.5C 176.193,163.544 179.026,143.711 196.5,126C 209.414,117.084 223.414,114.75 238.5,119C 240.066,119.608 241.4,120.442 242.5,121.5 Z"/></g>
<g><path style="opacity:0.329" fill="#9ac96d" d="M 123.5,115.5 C 73.4994,169.498 62.9994,230.498 92,298.5C 106.519,325.234 126.686,346.567 152.5,362.5C 149.873,361.895 147.207,361.395 144.5,361C 143.257,359.846 142.257,358.512 141.5,357C 140.167,356.667 138.833,356.333 137.5,356C 135.045,352.589 132.045,349.755 128.5,347.5C 127.614,346.675 127.281,345.675 127.5,344.5C 124.774,344.736 122.441,343.903 120.5,342C 109.142,329.426 99.1419,315.926 90.5,301.5C 88.0984,295.675 85.9318,289.675 84,283.5C 82.6667,281.5 81.3333,279.5 80,277.5C 77.9996,267.495 75.9996,257.495 74,247.5C 73.3333,234.167 73.3333,220.833 74,207.5C 75.6049,196.542 78.1049,185.875 81.5,175.5C 87.5846,164.16 93.4179,152.493 99,140.5C 100.955,139.547 102.622,138.213 104,136.5C 108.658,131.179 112.825,125.512 116.5,119.5C 118.381,117.266 120.715,115.933 123.5,115.5 Z"/></g>
<g><path style="opacity:1" fill="#87dd48" d="M 242.5,121.5 C 242.511,123.017 243.177,124.184 244.5,125C 251.739,128.222 257.239,133.389 261,140.5C 261.703,144.769 263.036,148.769 265,152.5C 265.667,157.833 265.667,163.167 265,168.5C 263.472,174.617 261.639,180.617 259.5,186.5C 259.167,186.5 258.833,186.5 258.5,186.5C 253.273,189.581 248.44,193.248 244,197.5C 239.177,198.788 234.343,199.955 229.5,201C 220.339,202.557 211.672,201.223 203.5,197C 200.048,192.922 195.881,189.755 191,187.5C 190.74,185.382 189.74,183.716 188,182.5C 187.511,177.519 186.178,172.852 184,168.5C 181.905,152.897 186.072,139.397 196.5,128C 210.774,119.306 226.107,117.14 242.5,121.5 Z"/></g>
<g><path style="opacity:0.004" fill="#fefffe" d="M 417.5,123.5 C 418.833,124.167 418.833,124.167 417.5,123.5 Z"/></g>
<g><path style="opacity:0.592" fill="#99c868" d="M 367.5,85.5 C 362.37,91.1314 357.036,96.6314 351.5,102C 364.755,115.749 375.422,131.249 383.5,148.5C 382.504,148.586 381.671,148.252 381,147.5C 376.415,139.325 371.581,131.325 366.5,123.5C 360.802,117.967 355.635,111.967 351,105.5C 350.186,103.098 350.353,100.765 351.5,98.5C 355.194,94.1396 359.194,90.1396 363.5,86.5C 364.689,85.5713 366.022,85.238 367.5,85.5 Z"/></g>
<g><path style="opacity:0.565" fill="#9bca6c" d="M 279.5,101.5 C 277.205,104.297 274.705,106.964 272,109.5C 271.436,114.194 271.603,118.86 272.5,123.5C 273.5,123.5 274.5,123.5 275.5,123.5C 277.699,127.826 280.865,131.492 285,134.5C 289.739,145.612 297.573,148.445 308.5,143C 313.557,135.759 319.89,130.259 327.5,126.5C 327.351,125.448 327.517,124.448 328,123.5C 329.972,122.695 331.472,121.361 332.5,119.5C 334.078,118.36 335.744,117.86 337.5,118C 341.746,123.579 346.579,128.412 352,132.5C 355.43,137.258 358.43,142.258 361,147.5C 361.49,148.793 361.657,150.127 361.5,151.5C 354.232,140.027 345.732,129.361 336,119.5C 327.14,128.028 318.307,136.528 309.5,145C 302.817,148.263 296.151,148.263 289.5,145C 281.624,137.792 274.458,129.959 268,121.5C 265.961,111.224 269.795,104.557 279.5,101.5 Z"/></g>
<g><path style="opacity:0.004" fill="#fefffe" d="M 417.5,146.5 C 418.833,147.167 418.833,147.167 417.5,146.5 Z"/></g>
<g><path style="opacity:0.49" fill="#9cc76e" d="M 383.5,148.5 C 390.862,161.58 395.862,175.58 398.5,190.5C 394.377,185.088 392.21,178.754 392,171.5C 388.58,164.004 385.747,156.337 383.5,148.5 Z"/></g>
<g><path style="opacity:0.004" fill="#fefffe" d="M 13.5,161.5 C 14.8333,162.167 14.8333,162.167 13.5,161.5 Z"/></g>
<g><path style="opacity:0.729" fill="#9bc76a" d="M 242.5,121.5 C 258.706,129.036 267.373,141.869 268.5,160C 267.958,169.794 264.958,178.627 259.5,186.5C 261.639,180.617 263.472,174.617 265,168.5C 265.667,163.167 265.667,157.833 265,152.5C 263.036,148.769 261.703,144.769 261,140.5C 257.239,133.389 251.739,128.222 244.5,125C 243.177,124.184 242.511,123.017 242.5,121.5 Z"/></g>
<g><path style="opacity:0.004" fill="#fefffe" d="M 469.5,175.5 C 470.833,176.167 470.833,176.167 469.5,175.5 Z"/></g>
<g><path style="opacity:0.365" fill="#a2cd78" d="M 361.5,151.5 C 363.193,152.475 364.693,153.808 366,155.5C 367.556,160.28 369.889,164.613 373,168.5C 374.846,178.706 377.512,188.706 381,198.5C 381.333,202.833 381.667,207.167 382,211.5C 384.814,236.651 381.814,260.984 373,284.5C 372.065,287.595 370.231,289.929 367.5,291.5C 379.978,262.377 383.812,232.044 379,200.5C 375.453,183.359 369.62,167.026 361.5,151.5 Z"/></g>
<g><path style="opacity:1" fill="#86dc48" d="M 81.5,175.5 C 78.1049,185.875 75.6049,196.542 74,207.5C 73.3333,220.833 73.3333,234.167 74,247.5C 75.9996,257.495 77.9996,267.495 80,277.5C 81.3333,279.5 82.6667,281.5 84,283.5C 85.9318,289.675 88.0984,295.675 90.5,301.5C 91.1049,304.127 91.6049,306.793 92,309.5C 95.8757,313.145 98.8757,317.478 101,322.5C 106.245,324.639 107.745,328.306 105.5,333.5C 106.242,334.287 107.075,334.953 108,335.5C 108.71,334.027 109.876,333.36 111.5,333.5C 112.63,337.313 114.963,340.313 118.5,342.5C 115.251,345.201 112.584,344.868 110.5,341.5C 109.428,345.056 110.428,348.056 113.5,350.5C 112.15,351.95 110.484,352.617 108.5,352.5C 104.674,348.198 100.841,343.865 97,339.5C 95.2188,336.667 93.7188,333.667 92.5,330.5C 91.1667,329.833 89.8333,329.167 88.5,328.5C 86.279,324.105 83.4457,320.105 80,316.5C 77.5087,312.033 75.5087,307.366 74,302.5C 72.6218,300.787 70.9552,299.453 69,298.5C 54.5066,259.352 52.6733,219.685 63.5,179.5C 65.1546,178.076 66.488,176.243 67.5,174C 69.4786,168.625 70.9786,163.125 72,157.5C 73,156.5 74,155.5 75,154.5C 75.777,149.654 77.6103,145.321 80.5,141.5C 82.5155,144.799 84.5155,144.966 86.5,142C 83.531,138.376 83.8643,135.21 87.5,132.5C 88.934,134.22 89.7674,136.22 90,138.5C 91.0113,139.337 92.1779,139.67 93.5,139.5C 93.4889,137.453 93.1556,135.453 92.5,133.5C 88.0333,129.097 89.0333,127.097 95.5,127.5C 95.9516,130.876 96.6182,134.209 97.5,137.5C 97.2711,141.359 95.4378,144.026 92,145.5C 91.9827,151.961 88.9827,154.294 83,152.5C 81.9412,152.63 81.1079,153.13 80.5,154C 84.0161,154.973 84.3495,156.473 81.5,158.5C 83.2995,159.39 84.2995,161.39 84.5,164.5C 84.6927,166.688 83.8594,168.355 82,169.5C 81.5045,171.473 81.3379,173.473 81.5,175.5 Z"/></g>
<g><path style="opacity:0.004" fill="#fefffe" d="M 428.5,202.5 C 429.833,203.167 429.833,203.167 428.5,202.5 Z"/></g>
<g><path style="opacity:0.488" fill="#a0cd76" d="M 259.5,216.5 C 236.831,216.333 214.164,216.5 191.5,217C 187.699,217.739 184.366,219.239 181.5,221.5C 180.833,221.5 180.167,221.5 179.5,221.5C 176.621,223.549 173.621,225.383 170.5,227C 166.383,229.949 162.716,233.449 159.5,237.5C 168.181,223.646 180.848,216.146 197.5,215C 216.167,214.333 234.833,214.333 253.5,215C 255.708,215.191 257.708,215.691 259.5,216.5 Z"/></g>
<g><path style="opacity:1" fill="#87dd49" d="M 292.5,239.5 C 294.862,246.651 296.696,253.984 298,261.5C 298.81,265.358 298.643,269.024 297.5,272.5C 273.647,273.814 249.647,274.481 225.5,274.5C 202.167,274.333 178.833,274.167 155.5,274C 154.874,273.25 154.374,272.416 154,271.5C 153.833,268.833 153.667,266.167 153.5,263.5C 154.334,256.81 155.5,250.144 157,243.5C 158.311,240.497 160.644,238.83 164,238.5C 164.093,235.993 164.926,233.826 166.5,232C 171.372,230.13 175.705,227.63 179.5,224.5C 179.5,223.5 179.5,222.5 179.5,221.5C 180.167,221.5 180.833,221.5 181.5,221.5C 186.717,221.061 191.717,219.894 196.5,218C 216.167,217.333 235.833,217.333 255.5,218C 260.367,219.792 265.367,221.125 270.5,222C 276.462,226.321 282.462,230.655 288.5,235C 289.191,236.067 289.691,237.234 290,238.5C 290.671,239.252 291.504,239.586 292.5,239.5 Z"/></g>
<g><path style="opacity:0.906" fill="#91c860" d="M 259.5,216.5 C 274.693,218.39 285.693,226.056 292.5,239.5C 291.504,239.586 290.671,239.252 290,238.5C 289.691,237.234 289.191,236.067 288.5,235C 282.462,230.655 276.462,226.321 270.5,222C 265.367,221.125 260.367,219.792 255.5,218C 235.833,217.333 216.167,217.333 196.5,218C 191.717,219.894 186.717,221.061 181.5,221.5C 184.366,219.239 187.699,217.739 191.5,217C 214.164,216.5 236.831,216.333 259.5,216.5 Z"/></g>
<g><path style="opacity:0.004" fill="#fefffe" d="M 447.5,249.5 C 448.833,250.167 448.833,250.167 447.5,249.5 Z"/></g>
<g><path style="opacity:0.427" fill="#9ec676" d="M 399.5,194.5 C 405.52,227.339 403.02,259.672 392,291.5C 391.617,292.056 391.117,292.389 390.5,292.5C 393.831,280.327 396.664,267.994 399,255.5C 400.796,235.182 400.962,214.848 399.5,194.5 Z"/></g>
<g><path style="opacity:0.004" fill="#fefffe" d="M 404.5,258.5 C 405.833,259.167 405.833,259.167 404.5,258.5 Z"/></g>
<g><path style="opacity:0.943" fill="#8ace58" d="M 179.5,221.5 C 179.5,222.5 179.5,223.5 179.5,224.5C 175.705,227.63 171.372,230.13 166.5,232C 164.926,233.826 164.093,235.993 164,238.5C 160.644,238.83 158.311,240.497 157,243.5C 155.5,250.144 154.334,256.81 153.5,263.5C 153.667,266.167 153.833,268.833 154,271.5C 154.374,272.416 154.874,273.25 155.5,274C 178.833,274.167 202.167,274.333 225.5,274.5C 249.647,274.481 273.647,273.814 297.5,272.5C 297.586,273.496 297.252,274.329 296.5,275C 248.833,275.667 201.167,275.667 153.5,275C 152.874,274.25 152.374,273.416 152,272.5C 151.501,267.177 151.334,261.844 151.5,256.5C 151.862,249.048 154.529,242.714 159.5,237.5C 162.716,233.449 166.383,229.949 170.5,227C 173.621,225.383 176.621,223.549 179.5,221.5 Z"/></g>
<g><path style="opacity:0.459" fill="#99cc70" d="M 292.5,239.5 C 295.081,242.32 296.914,245.654 298,249.5C 300.619,258.141 300.953,266.807 299,275.5C 297.601,276.227 296.101,276.727 294.5,277C 247.833,277.667 201.167,277.667 154.5,277C 153.069,276.535 151.903,275.701 151,274.5C 150.181,268.319 150.347,262.319 151.5,256.5C 151.334,261.844 151.501,267.177 152,272.5C 152.374,273.416 152.874,274.25 153.5,275C 201.167,275.667 248.833,275.667 296.5,275C 297.252,274.329 297.586,273.496 297.5,272.5C 298.643,269.024 298.81,265.358 298,261.5C 296.696,253.984 294.862,246.651 292.5,239.5 Z"/></g>
<g><path style="opacity:0.004" fill="#fefffe" d="M 398.5,286.5 C 399.833,287.167 399.833,287.167 398.5,286.5 Z"/></g>
<g><path style="opacity:0.295" fill="#a7d081" d="M 292.5,300.5 C 292.5,299.833 292.5,299.167 292.5,298.5C 294.167,295.692 293.5,293.525 290.5,292C 247.167,291.333 203.833,291.333 160.5,292C 158.722,294.135 158.055,296.635 158.5,299.5C 155.382,295.329 156.382,292.163 161.5,290C 203.833,289.333 246.167,289.333 288.5,290C 293.759,290.581 295.926,293.415 295,298.5C 294.292,299.381 293.458,300.047 292.5,300.5 Z"/></g>
<g><path style="opacity:0.004" fill="#fefffe" d="M 448.5,296.5 C 449.833,297.167 449.833,297.167 448.5,296.5 Z"/></g>
<g><path style="opacity:0.995" fill="#8acf50" d="M 292.5,298.5 C 292.5,299.167 292.5,299.833 292.5,300.5C 292.5,301.167 292.167,301.5 291.5,301.5C 247.294,300.823 202.961,300.157 158.5,299.5C 158.055,296.635 158.722,294.135 160.5,292C 203.833,291.333 247.167,291.333 290.5,292C 293.5,293.525 294.167,295.692 292.5,298.5 Z"/></g>
<g><path style="opacity:1" fill="#88dc4a" d="M 292.5,298.5 C 248.5,298.5 204.5,298.5 160.5,298.5C 160.5,296.833 160.5,295.167 160.5,293.5C 204.172,292.048 247.838,292.214 291.5,294C 292.38,295.356 292.714,296.856 292.5,298.5 Z"/></g>
<g><path style="opacity:0.395" fill="#a1cc70" d="M 158.5,299.5 C 202.961,300.157 247.294,300.823 291.5,301.5C 248.238,302.661 204.904,302.827 161.5,302C 160.058,301.623 159.058,300.79 158.5,299.5 Z"/></g>
<g><path style="opacity:0.004" fill="#fefffe" d="M 438.5,300.5 C 439.833,301.167 439.833,301.167 438.5,300.5 Z"/></g>
<g><path style="opacity:0.184" fill="#9ac371" d="M 169.5,315.5 C 184.837,315.333 200.17,315.5 215.5,316C 219.5,319.333 219.5,322.667 215.5,326C 200.167,326.667 184.833,326.667 169.5,326C 165.565,322.504 165.565,319.004 169.5,315.5 Z"/></g>
<g><path style="opacity:0.194" fill="#98c26f" d="M 283.5,325.5 C 283.663,323.143 283.497,320.81 283,318.5C 282.25,317.874 281.416,317.374 280.5,317C 266.167,316.333 251.833,316.333 237.5,317C 236.529,318.481 235.196,319.315 233.5,319.5C 233.944,317.887 234.944,316.72 236.5,316C 252.167,315.333 267.833,315.333 283.5,316C 287.457,319.296 287.457,322.463 283.5,325.5 Z"/></g>
<g><path style="opacity:1" fill="#88d84b" d="M 283.5,325.5 C 268.485,325.833 253.485,325.499 238.5,324.5C 237.108,322.77 235.441,321.436 233.5,320.5C 233.5,320.167 233.5,319.833 233.5,319.5C 235.196,319.315 236.529,318.481 237.5,317C 251.833,316.333 266.167,316.333 280.5,317C 281.416,317.374 282.25,317.874 283,318.5C 283.497,320.81 283.663,323.143 283.5,325.5 Z"/></g>
<g><path style="opacity:0.263" fill="#9ccb6f" d="M 390.5,292.5 C 385.354,308.462 377.354,322.795 366.5,335.5C 366.343,334.127 366.51,332.793 367,331.5C 373.172,324.818 377.505,317.152 380,308.5C 382.926,302.743 386.426,297.41 390.5,292.5 Z"/></g>
<g><path style="opacity:0.733" fill="#8dc957" d="M 212.5,317.5 C 198.829,317.333 185.163,317.5 171.5,318C 169.682,321.387 170.682,323.387 174.5,324C 187.513,324.833 200.513,324.666 213.5,323.5C 214.623,321.518 214.623,319.518 213.5,317.5C 215.722,317.559 216.722,318.725 216.5,321C 216.156,322.365 215.489,323.532 214.5,324.5C 200.178,325.666 185.845,325.833 171.5,325C 167.821,322.912 167.488,320.245 170.5,317C 184.673,316.173 198.673,316.339 212.5,317.5 Z"/></g>
<g><path style="opacity:1" fill="#88da48" d="M 212.5,317.5 C 212.833,317.5 213.167,317.5 213.5,317.5C 214.623,319.518 214.623,321.518 213.5,323.5C 200.513,324.666 187.513,324.833 174.5,324C 170.682,323.387 169.682,321.387 171.5,318C 185.163,317.5 198.829,317.333 212.5,317.5 Z"/></g>
<g><path style="opacity:0.188" fill="#99c574" d="M 233.5,320.5 C 235.441,321.436 237.108,322.77 238.5,324.5C 253.485,325.499 268.485,325.833 283.5,325.5C 267.672,326.661 251.672,326.828 235.5,326C 234.139,324.416 233.472,322.582 233.5,320.5 Z"/></g>
<g><path style="opacity:0.988" fill="#98cd67" d="M 63.5,176.5 C 63.5,177.5 63.5,178.5 63.5,179.5C 52.6733,219.685 54.5066,259.352 69,298.5C 70.9552,299.453 72.6218,300.787 74,302.5C 75.5087,307.366 77.5087,312.033 80,316.5C 83.4457,320.105 86.279,324.105 88.5,328.5C 89.8333,329.167 91.1667,329.833 92.5,330.5C 93.7188,333.667 95.2188,336.667 97,339.5C 100.841,343.865 104.674,348.198 108.5,352.5C 109.956,354.284 110.956,356.284 111.5,358.5C 106.908,355.414 102.742,351.747 99,347.5C 79.3356,325.179 65.669,299.512 58,270.5C 57.1721,266.534 56.6721,262.534 56.5,258.5C 54.6577,243.223 54.1577,227.889 55,212.5C 57.1079,204.627 58.4413,196.627 59,188.5C 60.2099,184.277 61.7099,180.277 63.5,176.5 Z"/></g>
<g><path style="opacity:0.922" fill="#9ad06a" d="M 361.5,308.5 C 359.58,311.339 357.913,314.339 356.5,317.5C 350.737,325.106 344.737,332.606 338.5,340C 334.275,342.216 330.608,345.216 327.5,349C 317.377,356.235 307.043,363.235 296.5,370C 273.154,379.416 248.821,384.249 223.5,384.5C 209.922,385.086 196.922,383.086 184.5,378.5C 181.605,377.201 178.938,375.535 176.5,373.5C 228.882,389.895 277.216,382.228 321.5,350.5C 327.437,346.408 333.271,342.075 339,337.5C 346.842,327.858 354.342,318.192 361.5,308.5 Z"/></g>
<g><path style="opacity:0.004" fill="#fefffe" d="M 9.5,333.5 C 10.8333,334.167 10.8333,334.167 9.5,333.5 Z"/></g>
<g><path style="opacity:1" fill="#87dd48" d="M 363.5,335.5 C 360.432,338.993 358.099,342.993 356.5,347.5C 356.403,350.911 358.07,352.245 361.5,351.5C 361.238,352.978 361.571,354.311 362.5,355.5C 366.277,357.435 369.943,359.602 373.5,362C 375.108,365.272 377.108,368.272 379.5,371C 386.985,372.746 393.985,375.579 400.5,379.5C 401.59,384.133 404.257,387.466 408.5,389.5C 415.275,396.427 421.942,403.594 428.5,411C 431.667,412.689 434.667,414.522 437.5,416.5C 437.351,417.552 437.517,418.552 438,419.5C 444.615,425.785 450.949,432.452 457,439.5C 458.591,441.927 459.425,444.593 459.5,447.5C 460.5,447.5 461.5,447.5 462.5,447.5C 463.097,451.832 463.263,456.165 463,460.5C 462.667,460.167 462.333,459.833 462,459.5C 461.626,460.416 461.126,461.25 460.5,462C 461.357,462.689 462.023,463.522 462.5,464.5C 460.904,467.456 459.404,470.456 458,473.5C 454.846,476.512 451.346,478.845 447.5,480.5C 442.106,481.934 436.773,481.767 431.5,480C 424.841,474.817 418.508,469.317 412.5,463.5C 411.548,461.955 411.215,460.288 411.5,458.5C 410.127,458.657 408.793,458.49 407.5,458C 406.194,455.427 404.527,453.094 402.5,451C 396.446,448.549 391.946,444.382 389,438.5C 380.116,430.621 371.45,422.287 363,413.5C 358.283,407.682 356.283,401.015 357,393.5C 349.47,386.493 342.303,379.159 335.5,371.5C 330.08,369.498 325.413,370.498 321.5,374.5C 317.298,374.488 314.298,376.322 312.5,380C 310.833,380.333 309.167,380.667 307.5,381C 301.773,384.863 295.773,388.196 289.5,391C 284.662,391.949 279.995,393.282 275.5,395C 265.334,397.037 255.001,398.704 244.5,400C 228.814,400.687 213.147,400.354 197.5,399C 191.931,396.204 185.931,394.537 179.5,394C 171.596,391.025 163.596,388.358 155.5,386C 153.474,384.406 151.474,382.906 149.5,381.5C 147.97,378.979 145.636,377.979 142.5,378.5C 142.719,377.325 142.386,376.325 141.5,375.5C 135.792,374.115 132.125,370.782 130.5,365.5C 127.211,364.591 123.878,363.591 120.5,362.5C 119.167,360.833 119.167,359.167 120.5,357.5C 122.618,358.946 124.951,359.613 127.5,359.5C 127.657,358.127 127.49,356.793 127,355.5C 124.833,353.667 122.667,351.833 120.5,350C 121.628,347.935 123.294,347.268 125.5,348C 129.497,350.245 132.997,353.078 136,356.5C 135.126,357.757 134.46,359.757 134,362.5C 135.512,361.743 136.846,360.743 138,359.5C 141.418,361.661 145.251,362.828 149.5,363C 157.641,369.376 166.641,374.043 176.5,377C 179.117,377.822 181.784,378.322 184.5,378.5C 196.922,383.086 209.922,385.086 223.5,384.5C 248.821,384.249 273.154,379.416 296.5,370C 307.043,363.235 317.377,356.235 327.5,349C 330.608,345.216 334.275,342.216 338.5,340C 344.737,332.606 350.737,325.106 356.5,317.5C 359.487,314.843 362.153,311.843 364.5,308.5C 365.425,307.359 366.259,307.359 367,308.5C 366.559,314.042 365.726,319.542 364.5,325C 365.167,325.333 365.833,325.667 366.5,326C 364.777,328.943 363.777,332.11 363.5,335.5 Z"/></g>
<g><path style="opacity:0.824" fill="#b0d489" d="M 367.5,291.5 C 367.33,296.514 365.497,300.847 362,304.5C 361.51,305.793 361.343,307.127 361.5,308.5C 354.342,318.192 346.842,327.858 339,337.5C 333.271,342.075 327.437,346.408 321.5,350.5C 341.321,334.344 356.654,314.677 367.5,291.5 Z"/></g>
<g><path style="opacity:0.004" fill="#fefffe" d="M 398.5,337.5 C 399.833,338.167 399.833,338.167 398.5,337.5 Z"/></g>
<g><path style="opacity:0.004" fill="#fefffe" d="M 6.5,342.5 C 7.83333,343.167 7.83333,343.167 6.5,342.5 Z"/></g>
<g><path style="opacity:1" fill="#8cd650" d="M 90.5,301.5 C 99.1419,315.926 109.142,329.426 120.5,342C 122.441,343.903 124.774,344.736 127.5,344.5C 127.281,345.675 127.614,346.675 128.5,347.5C 132.045,349.755 135.045,352.589 137.5,356C 138.833,356.333 140.167,356.667 141.5,357C 142.257,358.512 143.257,359.846 144.5,361C 147.207,361.395 149.873,361.895 152.5,362.5C 160.838,365.673 168.838,369.34 176.5,373.5C 178.938,375.535 181.605,377.201 184.5,378.5C 181.784,378.322 179.117,377.822 176.5,377C 166.641,374.043 157.641,369.376 149.5,363C 145.251,362.828 141.418,361.661 138,359.5C 136.846,360.743 135.512,361.743 134,362.5C 134.46,359.757 135.126,357.757 136,356.5C 132.997,353.078 129.497,350.245 125.5,348C 123.294,347.268 121.628,347.935 120.5,350C 122.667,351.833 124.833,353.667 127,355.5C 127.49,356.793 127.657,358.127 127.5,359.5C 124.951,359.613 122.618,358.946 120.5,357.5C 119.167,359.167 119.167,360.833 120.5,362.5C 123.878,363.591 127.211,364.591 130.5,365.5C 132.125,370.782 135.792,374.115 141.5,375.5C 142.386,376.325 142.719,377.325 142.5,378.5C 145.636,377.979 147.97,378.979 149.5,381.5C 145.833,380.167 142.167,378.833 138.5,377.5C 137.448,377.649 136.448,377.483 135.5,377C 126.89,371.539 118.89,365.373 111.5,358.5C 110.956,356.284 109.956,354.284 108.5,352.5C 110.484,352.617 112.15,351.95 113.5,350.5C 110.428,348.056 109.428,345.056 110.5,341.5C 112.584,344.868 115.251,345.201 118.5,342.5C 114.963,340.313 112.63,337.313 111.5,333.5C 109.876,333.36 108.71,334.027 108,335.5C 107.075,334.953 106.242,334.287 105.5,333.5C 107.745,328.306 106.245,324.639 101,322.5C 98.8757,317.478 95.8757,313.145 92,309.5C 91.6049,306.793 91.1049,304.127 90.5,301.5 Z"/></g>
<g><path style="opacity:0.004" fill="#fefffe" d="M 27.5,346.5 C 28.8333,347.167 28.8333,347.167 27.5,346.5 Z"/></g>
<g><path style="opacity:0.004" fill="#fefffe" d="M 397.5,347.5 C 398.833,348.167 398.833,348.167 397.5,347.5 Z"/></g>
<g><path style="opacity:1" fill="#9bd06e" d="M 363.5,335.5 C 364.5,335.5 365.5,335.5 366.5,335.5C 364.913,338.268 363.08,340.935 361,343.5C 360.333,344.833 360.333,346.167 361,347.5C 368.5,355 376,362.5 383.5,370C 390.757,370.666 396.424,373.833 400.5,379.5C 393.985,375.579 386.985,372.746 379.5,371C 377.108,368.272 375.108,365.272 373.5,362C 369.943,359.602 366.277,357.435 362.5,355.5C 361.571,354.311 361.238,352.978 361.5,351.5C 358.07,352.245 356.403,350.911 356.5,347.5C 358.099,342.993 360.432,338.993 363.5,335.5 Z"/></g>
<g><path style="opacity:0.004" fill="#00fffe" d="M 18.5,356.5 C 19.8333,357.167 19.8333,357.167 18.5,356.5 Z"/></g>
<g><path style="opacity:0.004" fill="#fefffe" d="M 409.5,357.5 C 410.833,358.167 410.833,358.167 409.5,357.5 Z"/></g>
<g><path style="opacity:0.004" fill="#fefffe" d="M 105.5,370.5 C 106.833,371.167 106.833,371.167 105.5,370.5 Z"/></g>
<g><path style="opacity:0.004" fill="#fefffe" d="M 7.5,372.5 C 8.83333,373.167 8.83333,373.167 7.5,372.5 Z"/></g>
<g><path style="opacity:0.004" fill="#fefffe" d="M 107.5,377.5 C 108.833,378.167 108.833,378.167 107.5,377.5 Z"/></g>
<g><path style="opacity:0.961" fill="#99ca67" d="M 400.5,379.5 C 413.058,391.392 425.392,403.725 437.5,416.5C 434.667,414.522 431.667,412.689 428.5,411C 421.942,403.594 415.275,396.427 408.5,389.5C 404.257,387.466 401.59,384.133 400.5,379.5 Z"/></g>
<g><path style="opacity:0.004" fill="#fefffe" d="M 17.5,405.5 C 18.8333,406.167 18.8333,406.167 17.5,405.5 Z"/></g>
<g><path style="opacity:0.004" fill="#fefffe" d="M 293.5,411.5 C 294.833,412.167 294.833,412.167 293.5,411.5 Z"/></g>
<g><path style="opacity:0.004" fill="#fefffe" d="M 71.5,420.5 C 72.8333,421.167 72.8333,421.167 71.5,420.5 Z"/></g>
<g><path style="opacity:0.004" fill="#fefffe" d="M 251.5,434.5 C 252.833,435.167 252.833,435.167 251.5,434.5 Z"/></g>
<g><path style="opacity:0.004" fill="#fefffe" d="M 198.5,435.5 C 199.833,436.167 199.833,436.167 198.5,435.5 Z"/></g>
<g><path style="opacity:0.004" fill="#fefffe" d="M 326.5,456.5 C 327.833,457.167 327.833,457.167 326.5,456.5 Z"/></g>
<g><path style="opacity:0.337" fill="#b2d38f" d="M 453.5,431.5 C 460.015,436.863 464.848,443.53 468,451.5C 469.599,461.478 466.765,469.812 459.5,476.5C 462.144,472.545 464.311,468.212 466,463.5C 468.386,451.713 464.72,442.38 455,435.5C 454.209,434.255 453.709,432.922 453.5,431.5 Z"/></g>
<g><path style="opacity:0.004" fill="#fefffe" d="M 349.5,459.5 C 350.833,460.167 350.833,460.167 349.5,459.5 Z"/></g>
<g><path style="opacity:1" fill="#8ed157" d="M 437.5,416.5 C 442.875,421.509 448.208,426.509 453.5,431.5C 453.709,432.922 454.209,434.255 455,435.5C 464.72,442.38 468.386,451.713 466,463.5C 464.311,468.212 462.144,472.545 459.5,476.5C 459.167,476.5 458.833,476.5 458.5,476.5C 455.203,478.64 451.536,479.973 447.5,480.5C 451.346,478.845 454.846,476.512 458,473.5C 459.404,470.456 460.904,467.456 462.5,464.5C 462.023,463.522 461.357,462.689 460.5,462C 461.126,461.25 461.626,460.416 462,459.5C 462.333,459.833 462.667,460.167 463,460.5C 463.263,456.165 463.097,451.832 462.5,447.5C 461.5,447.5 460.5,447.5 459.5,447.5C 459.425,444.593 458.591,441.927 457,439.5C 450.949,432.452 444.615,425.785 438,419.5C 437.517,418.552 437.351,417.552 437.5,416.5 Z"/></g>
<g><path style="opacity:0.004" fill="#fefffe" d="M 4.5,461.5 C 5.83333,462.167 5.83333,462.167 4.5,461.5 Z"/></g>
<g><path style="opacity:0.004" fill="#fefffe" d="M 90.5,465.5 C 91.8333,466.167 91.8333,466.167 90.5,465.5 Z"/></g>
<g><path style="opacity:0.004" fill="#fefffe" d="M 358.5,467.5 C 359.833,468.167 359.833,468.167 358.5,467.5 Z"/></g>
<g><path style="opacity:0.004" fill="#fefffe" d="M 464.5,472.5 C 465.833,473.167 465.833,473.167 464.5,472.5 Z"/></g>
<g><path style="opacity:0.945" fill="#9bcd6b" d="M 447.5,480.5 C 451.536,479.973 455.203,478.64 458.5,476.5C 453.741,481.53 447.741,483.864 440.5,483.5C 437.097,483.439 433.764,482.939 430.5,482C 427.328,480.248 424.328,478.248 421.5,476C 399.638,454.472 378.138,432.639 357,410.5C 355.331,405.155 353.665,399.822 352,394.5C 344.295,387.126 336.628,379.793 329,372.5C 282.973,402.494 233.139,410.661 179.5,397C 165.855,392.674 152.855,387.007 140.5,380C 139.619,379.292 138.953,378.458 138.5,377.5C 142.167,378.833 145.833,380.167 149.5,381.5C 151.474,382.906 153.474,384.406 155.5,386C 163.596,388.358 171.596,391.025 179.5,394C 185.931,394.537 191.931,396.204 197.5,399C 213.147,400.354 228.814,400.687 244.5,400C 255.001,398.704 265.334,397.037 275.5,395C 279.995,393.282 284.662,391.949 289.5,391C 295.773,388.196 301.773,384.863 307.5,381C 309.167,380.667 310.833,380.333 312.5,380C 314.298,376.322 317.298,374.488 321.5,374.5C 325.413,370.498 330.08,369.498 335.5,371.5C 342.303,379.159 349.47,386.493 357,393.5C 356.283,401.015 358.283,407.682 363,413.5C 371.45,422.287 380.116,430.621 389,438.5C 391.946,444.382 396.446,448.549 402.5,451C 404.527,453.094 406.194,455.427 407.5,458C 408.793,458.49 410.127,458.657 411.5,458.5C 411.215,460.288 411.548,461.955 412.5,463.5C 418.508,469.317 424.841,474.817 431.5,480C 436.773,481.767 442.106,481.934 447.5,480.5 Z"/></g>
<g><path style="opacity:0.004" fill="#fefffe" d="M 90.5,486.5 C 91.8333,487.167 91.8333,487.167 90.5,486.5 Z"/></g>
<g><path style="opacity:0.004" fill="#fefffe" d="M 419.5,500.5 C 420.833,501.167 420.833,501.167 419.5,500.5 Z"/></g>
<g><path style="opacity:0.004" fill="#fefffe" d="M 378.5,513.5 C 379.833,514.167 379.833,514.167 378.5,513.5 Z"/></g>
</svg>
